<!-- Generated by IcoMoon.io -->
<svg version="1.1" xmlns="http://www.w3.org/2000/svg" width="1024" height="1024" viewBox="0 0 1024 1024">
<title></title>
<g id="icomoon-ignore">
</g>
<path fill="#fff" d="M1024 444.8l-0.32 16-0.64 6.72c-0.771 26.825-10.94 51.135-27.312 69.891l0.112-0.131c12.16 22.4 16.96 49.6 12.8 75.84-4.329 34.904-20.021 65.521-43.197 88.637l-0.003 0.003c8.64 20.48 12.16 48.96 0 87.36-7.040 23.040-18.24 58.88-52.48 82.56 5.44 20.8 3.84 41.6-0.96 56.32-5.76 19.2-13.12 33.6-13.44 34.24-23.040 41.28-61.44 61.76-114.88 61.76h-174.72c-68.296-0.94-134.212-8.935-197.717-23.288l6.357 1.208c-75.84-17.28-111.040-25.6-129.6-30.4l-1.6-0.32-7.68-2.24h-1.28c-15.297 32.592-47.746 54.806-85.409 55.040h-96.031c-53.019 0-96-42.981-96-96v0-512c0-53.019 42.981-96 96-96v0h96c23.040 0 45.76 10.24 62.4 24l33.6-16.64c107.52-56.32 127.36-167.68 128-232 0.718-52.599 43.348-95.005 95.966-95.36h0.034c73.92 0 157.76 101.12 157.76 216 0 48-1.6 74.88-8 104.96 137.6 3.84 231.68 3.52 271.36 14.080 50.808 12.386 88.354 56.355 90.87 109.493l0.010 0.267zM224 416c0-17.673-14.327-32-32-32v0h-96c-17.673 0-32 14.327-32 32v0 512c0 17.673 14.327 32 32 32v0h96c17.673 0 32-14.327 32-32v0zM960 444.8c0-9.6-3.2-38.72-38.080-48.96-28.16-7.36-25.92-11.84-345.92-11.84 26.56-79.040 29.76-92.16 29.76-168 0-84.16-59.84-152-93.76-152-17.673 0-32 14.327-32 32v0c-1.28 108.8-45.76 241.6-192 302.080l-6.4 2.56c-16 4.8-25.6 18.24-25.6 33.28v441.92c0 23.68 27.2 28.48 27.2 28.48 8.32 2.24 15.36 4.48 148.48 35.2 2.24 0.64 89.6 20.48 177.28 20.48h174.72c33.28 0 48.64-10.56 58.24-27.84 0.32-0.64 5.12-10.24 8.96-23.040 3.84-12.16 2.24-45.12-32.96-45.12h-49.92c-8.837 0-16-7.163-16-16s7.163-16 16-16v0h52.48c67.84 0 74.24-30.080 84.48-62.4 7.68-24.32 12.48-65.6-41.6-65.6h-63.36c-8.837 0-16-7.163-16-16s7.163-16 16-16v0h76.16c53.76 0 64.96-45.12 69.12-69.12 3.2-19.2-3.2-58.88-51.2-58.88h-62.080c-8.837 0-16-7.163-16-16s7.163-16 16-16v0h64c56 0 62.72-31.040 63.36-47.040 0.32-10.56 0.64-8.96 0.64-20.16zM192 880c0 26.51-21.49 48-48 48s-48-21.49-48-48v0c0-26.51 21.49-48 48-48s48 21.49 48 48v0zM160 880c0-8.837-7.163-16-16-16s-16 7.163-16 16v0c0 8.837 7.163 16 16 16s16-7.163 16-16v0z"></path>
</svg>
